<svg xmlns="http://www.w3.org/2000/svg" version="1.1" xmlns:xlink="http://www.w3.org/1999/xlink" xmlns:svgjs="http://svgjs.dev/svgjs" viewBox="0 0 600 600"><path d="M389.3712463378906,176.0478973388672C373.50298563639325,168.562868754069,343.4131774902344,160.1796442667643,323.8023986816406,158.98204040527344C304.1916198730469,157.78443654378256,286.0778325398763,161.52694447835287,271.7065734863281,168.86227416992188C257.33531443277997,176.19760386149088,244.01196797688803,190.71856943766275,237.57484436035156,202.9940185546875C231.1377207438151,215.26946767171225,231.13772328694662,228.2934112548828,233.08383178710938,242.5149688720703C235.02994028727213,256.7365264892578,238.62275187174478,276.64671579996747,249.25149536132812,288.3233642578125C259.88023885091144,300.00001271565753,280.08982340494794,306.88624064127606,296.8562927246094,312.5748596191406C313.6227620442708,318.2634785970052,331.4371388753255,324.10178629557294,349.8503112792969,322.455078125C368.26348368326825,320.80836995442706,394.16167704264325,313.9221547444661,407.3353271484375,302.6946105957031C420.50897725423175,291.4670664469401,426.94610595703125,271.556879679362,428.8922119140625,255.08981323242188C430.83831787109375,238.62274678548178,425.5987904866536,217.06586456298828,419.011962890625,203.8922119140625C412.4251352945964,190.71855926513672,405.239507039388,183.53292592366537,389.3712463378906,176.0478973388672C373.50298563639325,168.562868754069,343.4131774902344,160.1796442667643,323.8023986816406,158.98204040527344" fill="#ffa726"></path></svg>