<svg width="797" height="665" fill="none" xmlns="http://www.w3.org/2000/svg"><path d="M1556.21 249.661a289.14 289.14 0 0035.46 87.765c-168.22-123.602-197.68-12.431-226.58 141.708-5.11 19.599-20.13 73.84-44.78 44.013-46.88-128.306-.49-274.494-45.05-406.234a99.974 99.974 0 00-30.71-52.335 99.8 99.8 0 00-114.78-13.226 99.966 99.966 0 00-41.78 43.984c-52.02 104.339-44.94 223.798-76.49 332.804-33.221 191.171-241.191 256.388-342.397 75.334 84.277-67.494 198.087-254.821 59.068-322.24C558.276 155.7 554.882 400.179 614.286 505.34 363.955 676.203 126.042 468.121 6.116 245.928L0 249.064C115.004 487.011 365.111 701.103 628.531 532.89c79.988 160.934 304.141 182.399 397.669 22.399 70.55-116.024 71.78-254.111 106.13-380.625 9.36-28.409 23.08-77.611 59.51-62.567 39.27 45.656 33.56 123.192 41.02 182.921 5.89 76.23 3.25 154.139 28.04 228.465 14.58 58.497 95.13 85.226 127.72 25.721 58.51-119.048-10.21-324.554 197.83-200.579-31.96-4.741-72.46 1.232-91.77 30.126l1.86 1.867c39.34-15.791 77.38-3.92 117.43-2.875 3.53.267 7.06-.594 10.08-2.46a16.794 16.794 0 006.7-7.924c1.34-3.284 1.61-6.91.77-10.356a16.822 16.822 0 00-5.47-8.826c-29.42-27.438-50.42-62.491-66.82-99.225l-3.02.709zM629.575 400.814C587.586 89.997 912.2 216.064 653.553 473.87a338.155 338.155 0 01-23.978-73.056zm981.855-36.883c.23.149.3.298 0 0z" fill="url(#paint0_linear_45_1437)"/><path d="M204.984 387.598c64.214 54.727 171.648 103.071 256.521 101.577a.744.744 0 01.669.622.738.738 0 01-.445.797c-83.269 22.286-208.043-32.739-257.64-101.876a.738.738 0 01.895-1.12zm-57.945-55.323a82.843 82.843 0 0133.711 32.553 2.699 2.699 0 01-.528 3.39 2.686 2.686 0 01-3.425.119 118.823 118.823 0 01-33.338-32.105 2.697 2.697 0 01.057-3.549 2.69 2.69 0 013.523-.408zm794.399 27.438a48.513 48.513 0 013.953-40.84 3.903 3.903 0 016.899.56 48.472 48.472 0 01-3.953 40.84 3.949 3.949 0 01-3.614 1.756 3.944 3.944 0 01-1.958-.71 3.95 3.95 0 01-1.327-1.606zm9.431-64.172C946.431 194.785 974.586 27.132 1084.44.105a1.76 1.76 0 011.3.041c.41.18.73.51.9.923.18.413.18.877.02 1.295-.16.418-.47.759-.87.951-89.725 57.116-101.994 195.278-131.304 292.861a1.837 1.837 0 11-3.617-.635z" fill="#fff"/><defs><linearGradient id="paint0_linear_45_1437" x1="816" y1="0" x2="816" y2="665" gradientUnits="userSpaceOnUse"><stop stop-color="#2A4DFB"/><stop offset="1" stop-color="#8A4EFB"/></linearGradient></defs></svg>