<svg width="236" height="102" fill="none" xmlns="http://www.w3.org/2000/svg"><path d="M0 71.745c22-9.916 67-34.01 71-51.066 5-21.319-31.5-30.739-36 0-3.377 23.066 0 80.814 48 80.318 48-.496 97.833-32.227 125-41.647" stroke="#DADFE9" stroke-dasharray="4 4"/><circle cx="208" cy="57" r="28" fill="#1895FD"/><path d="M203.371 55.202v6.86m4.667-10.142v10.142m4.591-3.235v3.235" stroke="#fff" stroke-width="1.5" stroke-linecap="round" stroke-linejoin="round"/><path clip-rule="evenodd" d="M212.686 47h-9.372c-3.266 0-5.314 2.312-5.314 5.585v8.83c0 3.273 2.038 5.585 5.314 5.585h9.372c3.276 0 5.314-2.312 5.314-5.585v-8.83c0-3.273-2.038-5.585-5.314-5.585z" stroke="#fff" stroke-width="1.5" stroke-linecap="round" stroke-linejoin="round"/></svg>