<svg width="172" height="103" fill="none" xmlns="http://www.w3.org/2000/svg"><path d="M28.5 72c22-10 67-34.3 71-51.5 5-21.5-31.5-31-36 0-3.377 23.262 0 81.5 48 81s97.833-32.5 125-42" stroke="#ABB8C1" stroke-dasharray="4 4"/><circle cx="28" cy="72" r="28" fill="#FFD55D"/><path d="M38.832 71.445C38.656 71.182 34.461 65 28 65c-6.494 0-10.66 6.185-10.834 6.448a.998.998 0 00.002 1.106C17.344 72.818 21.539 79 28 79c6.428 0 10.653-6.179 10.83-6.442a1 1 0 00.002-1.113zM28 77c-4.35 0-7.635-3.596-8.753-5.002.658-.832 2.075-2.425 4.024-3.59A4.903 4.903 0 0023 70c0 2.757 2.243 5 5 5s5-2.243 5-5a4.9 4.9 0 00-.268-1.582c1.94 1.164 3.357 2.75 4.018 3.581C35.623 73.407 32.324 77 28 77z" fill="#fff"/></svg>